<?xml version="1.0" encoding="UTF-8"?>
<!DOCTYPE svg PUBLIC "-//W3C//DTD SVG 1.1//EN" "http://www.w3.org/Graphics/SVG/1.1/DTD/svg11.dtd">
<svg xmlns="http://www.w3.org/2000/svg" version="1.1" width="366px" height="167px" style="shape-rendering:geometricPrecision; text-rendering:geometricPrecision; image-rendering:optimizeQuality; fill-rule:evenodd; clip-rule:evenodd" xmlns:xlink="http://www.w3.org/1999/xlink">
<g><path style="opacity:0.901" fill="#fcfdfc" d="M 150.5,-0.5 C 151.5,-0.5 152.5,-0.5 153.5,-0.5C 161.633,10.0164 167.8,21.6831 172,34.5C 177.439,23.9556 182.606,13.2889 187.5,2.5C 190.086,1.51998 192.753,1.18665 195.5,1.5C 195.66,3.19919 195.494,4.86586 195,6.5C 187.904,17.6873 181.571,29.354 176,41.5C 175.333,49.8333 175.333,58.1667 176,66.5C 177.754,68.25 179.921,68.9167 182.5,68.5C 182.5,70.5 182.5,72.5 182.5,74.5C 173.265,73.6374 163.931,73.6374 154.5,74.5C 154.5,72.5 154.5,70.5 154.5,68.5C 156.792,68.7564 158.959,68.4231 161,67.5C 161.531,60.1411 161.865,52.8077 162,45.5C 158.468,36.1033 154.135,27.1033 149,18.5C 146.861,15.0607 144.361,11.894 141.5,9C 140.207,8.50999 138.873,8.34332 137.5,8.5C 137.215,6.71199 137.548,5.04533 138.5,3.5C 142.71,2.45601 146.71,1.12268 150.5,-0.5 Z"/></g>
<g><path style="opacity:0.915" fill="#fcfdfc" d="M 231.5,-0.5 C 235.167,-0.5 238.833,-0.5 242.5,-0.5C 247.788,0.454083 252.955,2.12075 258,4.5C 257.837,10.4726 257.67,16.4726 257.5,22.5C 255.833,22.5 254.167,22.5 252.5,22.5C 253.259,16.617 251.259,12.117 246.5,9C 231.62,4.02387 221.454,8.8572 216,23.5C 211.909,39.0725 215.409,52.5725 226.5,64C 237.053,68.975 247.387,68.475 257.5,62.5C 258.739,65.3208 258.405,67.9875 256.5,70.5C 246.193,76.4697 235.359,77.803 224,74.5C 223.333,81.8333 223.333,89.1667 224,96.5C 231.732,86.638 240.066,85.9714 249,94.5C 250.273,106.763 250.94,119.097 251,131.5C 252.337,133.004 254.004,134.004 256,134.5C 256.494,136.134 256.66,137.801 256.5,139.5C 249.986,139.955 243.653,139.455 237.5,138C 238.653,126.91 238.82,115.743 238,104.5C 235.447,99.3737 231.614,98.2071 226.5,101C 225.283,102.648 224.45,104.481 224,106.5C 223.284,115.527 223.451,124.527 224.5,133.5C 226.5,133.5 228.5,133.5 230.5,133.5C 230.5,135.5 230.5,137.5 230.5,139.5C 221.932,138.637 213.265,138.637 204.5,139.5C 204.5,137.5 204.5,135.5 204.5,133.5C 206.792,133.756 208.959,133.423 211,132.5C 211.833,112.492 211.666,92.4917 210.5,72.5C 208.591,71.6518 206.591,71.3184 204.5,71.5C 204.027,68.1671 205.36,66.0004 208.5,65C 204.647,59.7814 202.147,53.9481 201,47.5C 197.477,31.7396 201.31,18.2396 212.5,7C 218.29,2.81704 224.623,0.317042 231.5,-0.5 Z"/></g>
<g><path style="opacity:0.935" fill="#fcfdfc" d="M 104.5,1.5 C 114.167,1.5 123.833,1.5 133.5,1.5C 133.5,3.16667 133.5,4.83333 133.5,6.5C 128.882,5.30873 126.382,6.97539 126,11.5C 125.231,30.5203 125.398,49.5203 126.5,68.5C 131.931,67.0936 134.265,69.0936 133.5,74.5C 123.833,73.1667 114.167,73.1667 104.5,74.5C 103.735,69.0936 106.069,67.0936 111.5,68.5C 112.601,49.8537 112.767,31.187 112,12.5C 112.313,7.11456 109.813,5.11456 104.5,6.5C 104.5,4.83333 104.5,3.16667 104.5,1.5 Z"/></g>
<g><path style="opacity:0.893" fill="#fcfdfc" d="M 269.5,63.5 C 276.229,62.3977 279.896,65.231 280.5,72C 279.994,79.0528 276.328,81.3862 269.5,79C 268.667,78.1667 267.833,77.3333 267,76.5C 265.743,71.6169 266.576,67.2835 269.5,63.5 Z"/></g>
<g><path style="opacity:0.903" fill="#fcfdfc" d="M -0.5,136.5 C -0.5,134.167 -0.5,131.833 -0.5,129.5C 0.483418,125.702 0.816751,121.702 0.5,117.5C 2.16667,117.5 3.83333,117.5 5.5,117.5C 4.32611,128.166 9.15944,133.833 20,134.5C 24.8582,134.573 28.5248,132.573 31,128.5C 32.4573,124.259 32.7907,119.926 32,115.5C 30.7727,113.274 28.9393,111.774 26.5,111C 19.6435,109.619 12.9768,107.619 6.5,105C 2.97931,101.775 0.645981,97.9416 -0.5,93.5C -0.5,90.5 -0.5,87.5 -0.5,84.5C 2.3944,71.2908 10.7277,64.6242 24.5,64.5C 30.2874,64.7564 35.7874,66.0898 41,68.5C 40.8922,73.804 40.5589,79.1373 40,84.5C 38.6439,85.3802 37.1439,85.7135 35.5,85.5C 36.7346,76.0303 32.5679,71.3637 23,71.5C 15.615,72.0523 11.7817,76.0523 11.5,83.5C 11.5087,86.684 12.5087,89.5173 14.5,92C 21.7487,94.2508 29.082,96.2508 36.5,98C 42.9039,102.017 45.5706,107.851 44.5,115.5C 44.2597,129.573 37.2597,138.073 23.5,141C 15.0356,141.874 7.03564,140.374 -0.5,136.5 Z"/></g>
<g><path style="opacity:0.907" fill="#fcfdfc" d="M 122.5,166.5 C 113.5,166.5 104.5,166.5 95.5,166.5C 95.5,164.833 95.5,163.167 95.5,161.5C 97.9363,161.683 100.103,161.016 102,159.5C 102.667,139.167 102.667,118.833 102,98.5C 99.9592,97.5769 97.7925,97.2436 95.5,97.5C 95.5,95.5 95.5,93.5 95.5,91.5C 101.772,91.4323 107.772,90.0989 113.5,87.5C 114.086,87.7093 114.586,88.0426 115,88.5C 115.333,90.8333 115.667,93.1667 116,95.5C 122.214,87.9889 129.714,86.4889 138.5,91C 144.941,97.9262 147.108,106.093 145,115.5C 142.058,128.604 134.225,136.937 121.5,140.5C 119.142,140.247 116.808,139.914 114.5,139.5C 114.334,146.175 114.5,152.842 115,159.5C 117.382,160.554 119.882,161.221 122.5,161.5C 122.5,163.167 122.5,164.833 122.5,166.5 Z M 119.5,98.5 C 127.843,98.0027 132.343,102.003 133,110.5C 133.496,115.208 133.162,119.875 132,124.5C 128.145,133.48 122.479,134.813 115,128.5C 114.333,120.167 114.333,111.833 115,103.5C 116.193,101.503 117.693,99.8362 119.5,98.5 Z"/></g>
<g><path style="opacity:0.907" fill="#fcfdfc" d="M 177.5,166.5 C 168.5,166.5 159.5,166.5 150.5,166.5C 150.5,164.833 150.5,163.167 150.5,161.5C 152.936,161.683 155.103,161.016 157,159.5C 157.667,139.167 157.667,118.833 157,98.5C 154.959,97.5769 152.792,97.2436 150.5,97.5C 150.5,95.5 150.5,93.5 150.5,91.5C 156.772,91.4323 162.772,90.0989 168.5,87.5C 169.086,87.7093 169.586,88.0426 170,88.5C 170.333,90.8333 170.667,93.1667 171,95.5C 177.214,87.9889 184.714,86.4889 193.5,91C 199.941,97.9262 202.108,106.093 200,115.5C 197.058,128.604 189.225,136.937 176.5,140.5C 174.142,140.247 171.808,139.914 169.5,139.5C 169.334,146.175 169.5,152.842 170,159.5C 172.382,160.554 174.882,161.221 177.5,161.5C 177.5,163.167 177.5,164.833 177.5,166.5 Z M 174.5,98.5 C 182.843,98.0027 187.343,102.003 188,110.5C 188.496,115.208 188.162,119.875 187,124.5C 183.145,133.48 177.479,134.813 170,128.5C 169.333,120.167 169.333,111.833 170,103.5C 171.193,101.503 172.693,99.8362 174.5,98.5 Z"/></g>
<g><path style="opacity:0.903" fill="#fcfdfc" d="M 277.5,87.5 C 279.321,102.133 280.154,117.133 280,132.5C 282.041,133.423 284.208,133.756 286.5,133.5C 286.5,135.5 286.5,137.5 286.5,139.5C 277.735,138.637 269.068,138.637 260.5,139.5C 260.5,137.5 260.5,135.5 260.5,133.5C 262.792,133.756 264.959,133.423 267,132.5C 267.667,121.5 267.667,110.5 267,99.5C 265.246,97.75 263.079,97.0833 260.5,97.5C 260.5,95.5 260.5,93.5 260.5,91.5C 266.6,91.5571 272.266,90.2238 277.5,87.5 Z"/></g>
<g><path style="opacity:0.886" fill="#fcfdfc" d="M 306.5,87.5 C 307.496,87.4142 308.329,87.7476 309,88.5C 309.333,91.1667 309.667,93.8333 310,96.5C 311.833,94 313.667,91.5 315.5,89C 322.652,85.8088 325.318,88.1421 323.5,96C 323.475,98.755 323.141,101.422 322.5,104C 320.101,103.017 317.601,101.85 315,100.5C 312.947,101.359 311.28,102.692 310,104.5C 309.141,107.948 308.641,111.448 308.5,115C 309.217,121.148 309.55,127.314 309.5,133.5C 311.833,133.5 314.167,133.5 316.5,133.5C 316.5,135.5 316.5,137.5 316.5,139.5C 307.833,139.5 299.167,139.5 290.5,139.5C 290.5,137.5 290.5,135.5 290.5,133.5C 292.5,133.5 294.5,133.5 296.5,133.5C 297.455,121.794 297.289,110.127 296,98.5C 294.301,97.5939 292.467,97.2606 290.5,97.5C 290.5,95.5 290.5,93.5 290.5,91.5C 296.245,91.3972 301.578,90.0639 306.5,87.5 Z"/></g>
<g><path style="opacity:0.897" fill="#fcfdfc" d="M 66.5,88.5 C 70.5138,88.3345 74.5138,88.5012 78.5,89C 83.5513,90.7167 86.3846,94.2167 87,99.5C 87.3333,110.5 87.6667,121.5 88,132.5C 89.3561,133.38 90.8561,133.714 92.5,133.5C 92.5,135.5 92.5,137.5 92.5,139.5C 86.8333,139.5 81.1667,139.5 75.5,139.5C 75.6621,137.473 75.4955,135.473 75,133.5C 72.54,134.958 70.3734,136.791 68.5,139C 57.8092,142.311 52.4759,138.311 52.5,127C 52.0114,121.446 54.0114,117.113 58.5,114C 63.6396,111.731 68.9729,110.065 74.5,109C 75.7773,104.505 74.4439,100.838 70.5,98C 65.2865,96.1942 61.9532,97.8608 60.5,103C 59.2068,103.49 57.8734,103.657 56.5,103.5C 56.3359,100.813 56.5026,98.146 57,95.5C 60.0681,92.9174 63.2348,90.5841 66.5,88.5 Z M 73.5,114.5 C 74.7943,116.048 75.4609,118.048 75.5,120.5C 76.1357,126.685 73.4691,129.852 67.5,130C 63.6219,125.989 63.6219,121.823 67.5,117.5C 69.604,116.481 71.604,115.481 73.5,114.5 Z"/></g>
<g><path style="opacity:0.908" fill="#fcfdfc" d="M 365.5,103.5 C 365.5,106.833 365.5,110.167 365.5,113.5C 356.981,115.294 348.314,115.961 339.5,115.5C 339.694,124.358 344.028,130.024 352.5,132.5C 356.532,131.475 360.532,130.475 364.5,129.5C 364.319,134.853 361.652,138.353 356.5,140C 336.644,143.981 326.977,135.814 327.5,115.5C 326.622,97.2121 335.288,88.3788 353.5,89C 360.647,91.3073 364.647,96.1406 365.5,103.5 Z M 343.5,95.5 C 346.365,95.0548 348.865,95.7215 351,97.5C 352.536,101.346 353.369,105.346 353.5,109.5C 348.5,109.5 343.5,109.5 338.5,109.5C 338.49,104.103 340.156,99.4359 343.5,95.5 Z"/></g>
</svg>
